<svg width="393" height="852" viewBox="0 0 393 852" fill="none" xmlns="http://www.w3.org/2000/svg">
<g clip-path="url(#clip0_112_18)">
<rect width="393" height="852" fill="white"/>
<path d="M-1.27393 21C-1.27393 1.39816 -1.27393 -8.40276 2.54085 -15.8897C5.89641 -22.4753 11.2507 -27.8297 17.8364 -31.1852C25.3233 -35 35.1242 -35 54.7261 -35H337.726C357.328 -35 367.129 -35 374.616 -31.1852C381.201 -27.8297 386.556 -22.4753 389.911 -15.8897C393.726 -8.40276 393.726 1.39816 393.726 21V852H-1.27393V21Z" fill="#060606"/>
<g filter="url(#filter0_f_112_18)">
<path d="M226.351 -135.017C222.93 -90.4185 301.715 -86.8051 341.536 -90.5732C365.877 -112.598 408 -160.465 381.766 -175.732C348.973 -194.815 406.772 -241.83 356.874 -247.597C306.975 -253.363 294.008 -216.651 258.82 -254.223C223.633 -291.794 114.617 -198.674 145.692 -186.684C176.768 -174.693 230.628 -190.765 226.351 -135.017Z" fill="#019CD2"/>
</g>
<g filter="url(#filter1_f_112_18)">
<path d="M134.393 -120.568L255.897 -19.3479L-89.6249 -19.3479L-97 -220.809L-12.1868 -159.424L134.393 -120.568Z" fill="#076479"/>
</g>
<g filter="url(#filter2_f_112_18)">
<path d="M407.172 -343.289C484.792 -389.106 439.513 -471.796 407.172 -507.414C354.065 -507.414 245.678 -496.649 236.983 -453.589C226.114 -399.765 108.942 -405.598 131.74 -349.387C154.539 -293.176 225.053 -320.751 184.493 -244.124C143.934 -167.496 372.444 -161.398 372.444 -205.678C372.444 -249.957 310.147 -286.017 407.172 -343.289Z" fill="#A855F7"/>
</g>
<g filter="url(#filter3_f_112_18)">
<path d="M159.731 -173.875L-29.7605 -39.5591V-421.513L347.388 -429.666L232.471 -335.91L159.731 -173.875Z" fill="#6366F1"/>
</g>
<g style="mix-blend-mode:color">
<g filter="url(#filter4_f_112_18)">
<path d="M311.264 -150.697L454.76 -66.9122L528.818 -169.986L519.492 -291.077L383.024 -296.311L311.264 -150.697Z" fill="#22D3EE"/>
<path d="M311.264 -150.697L454.76 -66.9122L528.818 -169.986L519.492 -291.077L383.024 -296.311L311.264 -150.697Z" stroke="#8215B5" stroke-width="100"/>
</g>
<g filter="url(#filter5_f_112_18)">
<path d="M131.698 -158.489C44.4941 -153.313 77.7542 -285.214 105.285 -351.812L100.818 -355.021L230.312 -618.698C275.625 -610.307 381.111 -573.566 440.55 -493.733C514.849 -393.941 240.703 -164.959 131.698 -158.489Z" fill="#38BDF8"/>
<path d="M131.698 -158.489C44.4941 -153.313 77.7542 -285.214 105.285 -351.812L100.818 -355.021L230.312 -618.698C275.625 -610.307 381.111 -573.566 440.55 -493.733C514.849 -393.941 240.703 -164.959 131.698 -158.489Z" stroke="black"/>
</g>
<g filter="url(#filter6_f_112_18)">
<path d="M284.431 -366.096C261.908 -319.665 364.168 -95.578 418.114 10.6618L357.644 64.7969C336.226 22.567 277.692 -73.4225 214.9 -119.541C136.411 -177.189 312.585 -424.135 284.431 -366.096Z" fill="#019CD2"/>
</g>
<g filter="url(#filter7_f_112_18)">
<path d="M370.816 -479.44C394.055 -524.354 526.173 -410.882 589.327 -348.532C549.94 -293.714 464.711 -176.976 438.884 -148.572C406.601 -113.067 370.664 -254.03 346.032 -304.59C321.401 -355.15 421.416 -330.952 438.754 -365.907C456.092 -400.862 341.768 -423.299 370.816 -479.44Z" fill="#F43F5E"/>
</g>
</g>
</g>
<defs>
<filter id="filter0_f_112_18" x="-359.815" y="-763.098" width="1249.89" height="1173.65" filterUnits="userSpaceOnUse" color-interpolation-filters="sRGB">
<feFlood flood-opacity="0" result="BackgroundImageFix"/>
<feBlend mode="normal" in="SourceGraphic" in2="BackgroundImageFix" result="shape"/>
<feGaussianBlur stdDeviation="250" result="effect1_foregroundBlur_112_18"/>
</filter>
<filter id="filter1_f_112_18" x="-397" y="-520.809" width="952.897" height="801.461" filterUnits="userSpaceOnUse" color-interpolation-filters="sRGB">
<feFlood flood-opacity="0" result="BackgroundImageFix"/>
<feBlend mode="normal" in="SourceGraphic" in2="BackgroundImageFix" result="shape"/>
<feGaussianBlur stdDeviation="150" result="effect1_foregroundBlur_112_18"/>
</filter>
<filter id="filter2_f_112_18" x="-171.194" y="-807.414" width="921.224" height="929.408" filterUnits="userSpaceOnUse" color-interpolation-filters="sRGB">
<feFlood flood-opacity="0" result="BackgroundImageFix"/>
<feBlend mode="normal" in="SourceGraphic" in2="BackgroundImageFix" result="shape"/>
<feGaussianBlur stdDeviation="150" result="effect1_foregroundBlur_112_18"/>
</filter>
<filter id="filter3_f_112_18" x="-329.76" y="-729.666" width="977.149" height="990.107" filterUnits="userSpaceOnUse" color-interpolation-filters="sRGB">
<feFlood flood-opacity="0" result="BackgroundImageFix"/>
<feBlend mode="normal" in="SourceGraphic" in2="BackgroundImageFix" result="shape"/>
<feGaussianBlur stdDeviation="150" result="effect1_foregroundBlur_112_18"/>
</filter>
<filter id="filter4_f_112_18" x="-54.1805" y="-647.518" width="934.252" height="946.718" filterUnits="userSpaceOnUse" color-interpolation-filters="sRGB">
<feFlood flood-opacity="0" result="BackgroundImageFix"/>
<feBlend mode="normal" in="SourceGraphic" in2="BackgroundImageFix" result="shape"/>
<feGaussianBlur stdDeviation="150" result="effect1_foregroundBlur_112_18"/>
</filter>
<filter id="filter5_f_112_18" x="-225.072" y="-919.259" width="978.714" height="1061.42" filterUnits="userSpaceOnUse" color-interpolation-filters="sRGB">
<feFlood flood-opacity="0" result="BackgroundImageFix"/>
<feBlend mode="normal" in="SourceGraphic" in2="BackgroundImageFix" result="shape"/>
<feGaussianBlur stdDeviation="150" result="effect1_foregroundBlur_112_18"/>
</filter>
<filter id="filter6_f_112_18" x="-105.42" y="-674.864" width="823.533" height="1039.66" filterUnits="userSpaceOnUse" color-interpolation-filters="sRGB">
<feFlood flood-opacity="0" result="BackgroundImageFix"/>
<feBlend mode="normal" in="SourceGraphic" in2="BackgroundImageFix" result="shape"/>
<feGaussianBlur stdDeviation="150" result="effect1_foregroundBlur_112_18"/>
</filter>
<filter id="filter7_f_112_18" x="42.152" y="-789.694" width="847.175" height="946.788" filterUnits="userSpaceOnUse" color-interpolation-filters="sRGB">
<feFlood flood-opacity="0" result="BackgroundImageFix"/>
<feBlend mode="normal" in="SourceGraphic" in2="BackgroundImageFix" result="shape"/>
<feGaussianBlur stdDeviation="150" result="effect1_foregroundBlur_112_18"/>
</filter>
<clipPath id="clip0_112_18">
<rect width="393" height="852" fill="white"/>
</clipPath>
</defs>
</svg>
